<svg xmlns="http://www.w3.org/2000/svg" width="420" height="96" viewBox="0 0 420 96" role="img" aria-labelledby="title desc">
  <title id="title">PreçoCerto</title><desc id="desc">Logomarca PreçoCerto em verde e laranja para fundos escuros</desc>
  <defs><linearGradient id="green" x1="4" y1="7" x2="80" y2="88" gradientUnits="userSpaceOnUse"><stop stop-color="#108572"/><stop offset="1" stop-color="#075447"/></linearGradient><linearGradient id="orange" x1="42" y1="15" x2="92" y2="88" gradientUnits="userSpaceOnUse"><stop stop-color="#F58A45"/><stop offset="1" stop-color="#C94D16"/></linearGradient></defs>
  <g aria-hidden="true"><path d="M10 13h39c18 0 31 9 35 23l-15 4c-2-8-10-13-20-13H25v24H10V13Zm0 36h15v34H10V49Z" fill="url(#green)"/><path d="M53 36c14 0 26 5 35 14L77 61c-6-6-13-9-22-9-16 0-27 10-27 24s11 24 27 24c9 0 17-3 23-9l11 11c-9 9-21 14-35 14-25 0-43-16-43-40s18-40 42-40Z" fill="url(#orange)" transform="translate(0 -17) scale(.86)"/><path d="M26 54h7l4 16h36l-5 13H39L31 47h-7" fill="none" stroke="#fff" stroke-width="5" stroke-linecap="round" stroke-linejoin="round"/><circle cx="43" cy="87" r="4" fill="#F26A21"/><circle cx="66" cy="87" r="4" fill="#F26A21"/><path d="M73 54h13l8 13-10 10-11-11V54Z" fill="#292929"/><circle cx="78" cy="59" r="2" fill="#F26A21"/><text x="80" y="71" fill="#fff" font-family="Arial,sans-serif" font-size="11" font-weight="700">%</text></g>
  <g aria-hidden="true" font-family="Manrope,Inter,Arial,sans-serif" font-weight="800" letter-spacing="-2"><text x="112" y="61" fill="#FFFFFF" font-size="42">Preço</text><text x="252" y="61" fill="#FF7A1A" font-size="42">Certo</text></g>
</svg>
