<svg xmlns="http://www.w3.org/2000/svg" viewBox="0 0 1600 1000" role="img" aria-labelledby="title desc">
  <title id="title">PreçoCerto — fundo de abertura</title>
  <desc id="desc">Fundo institucional com etiqueta de preço, comparação e elementos do comércio local.</desc>
  <defs>
    <linearGradient id="bg" x1="120" y1="70" x2="1480" y2="930" gradientUnits="userSpaceOnUse">
      <stop stop-color="#0B3028"/>
      <stop offset="0.48" stop-color="#123D31"/>
      <stop offset="1" stop-color="#09271F"/>
    </linearGradient>
    <radialGradient id="goldGlow" cx="0" cy="0" r="1" gradientUnits="userSpaceOnUse" gradientTransform="translate(1260 210) rotate(145) scale(620 430)">
      <stop stop-color="#EAB541" stop-opacity=".22"/>
      <stop offset="1" stop-color="#EAB541" stop-opacity="0"/>
    </radialGradient>
    <radialGradient id="greenGlow" cx="0" cy="0" r="1" gradientUnits="userSpaceOnUse" gradientTransform="translate(270 780) rotate(-20) scale(520 340)">
      <stop stop-color="#58B992" stop-opacity=".14"/>
      <stop offset="1" stop-color="#58B992" stop-opacity="0"/>
    </radialGradient>
    <linearGradient id="tag" x1="430" y1="265" x2="650" y2="500" gradientUnits="userSpaceOnUse">
      <stop stop-color="#F1C766"/>
      <stop offset="1" stop-color="#D59A25"/>
    </linearGradient>
    <filter id="blur" x="-40%" y="-40%" width="180%" height="180%"><feGaussianBlur stdDeviation="36"/></filter>
  </defs>
  <rect width="1600" height="1000" fill="url(#bg)"/>
  <rect width="1600" height="1000" fill="url(#goldGlow)"/>
  <rect width="1600" height="1000" fill="url(#greenGlow)"/>

  <g opacity=".9" transform="translate(260 225) rotate(-7)">
    <path d="M0 95 95 0h235l116 116-232 232L0 134V95Z" fill="url(#tag)"/>
    <circle cx="273" cy="74" r="23" fill="#123D31"/>
    <path d="m116 168 54 54 112-126" fill="none" stroke="#123D31" stroke-width="28" stroke-linecap="round" stroke-linejoin="round"/>
  </g>

  <g opacity=".22" fill="none" stroke="#F5E7C0" stroke-width="5" stroke-linecap="round" stroke-linejoin="round">
    <path d="M1050 285h82l18 74h238l-36 98h-184l-45-172Z"/>
    <circle cx="1188" cy="500" r="17" fill="#F5E7C0" stroke="none"/>
    <circle cx="1326" cy="500" r="17" fill="#F5E7C0" stroke="none"/>
  </g>

  <g opacity=".15" stroke="#F5E7C0" stroke-width="3" fill="none">
    <rect x="1010" y="610" width="300" height="112" rx="28"/>
    <circle cx="1065" cy="666" r="25"/>
    <path d="m1053 666 9 9 18-21" stroke="#EAB541" stroke-width="6" stroke-linecap="round" stroke-linejoin="round"/>
    <path d="M1110 644h132M1110 670h92"/>
    <rect x="1220" y="688" width="58" height="12" rx="6" fill="#EAB541" stroke="none"/>
  </g>

  <path d="M80 842C310 760 515 816 725 744C925 676 1038 548 1236 546C1388 545 1494 610 1580 582" stroke="#EAB541" stroke-opacity=".16" stroke-width="3"/>
  <g opacity=".13" stroke="#F5E7C0" stroke-width="5" stroke-linecap="round" stroke-linejoin="round">
    <path d="M210 760h90l-12 66h-62l-16-66Z"/><path d="M198 730h28l8 30"/>
    <path d="M420 814c12-42 38-72 78-72 40 0 66 30 78 72"/>
    <rect x="660" y="730" width="66" height="98" rx="18"/><path d="M677 730v-24h32v24"/>
  </g>
  <ellipse cx="1290" cy="900" rx="300" ry="78" fill="#EAB541" opacity=".09" filter="url(#blur)"/>
</svg>