<svg xmlns="http://www.w3.org/2000/svg" width="560" height="128" viewBox="0 0 560 128" role="img" aria-labelledby="title desc">
  <title id="title">Preço Certo</title><desc id="desc">Logomarca oficial clara do Preço Certo com etiqueta de preço e confirmação.</desc>
  <defs><linearGradient id="bg" x1="8" y1="6" x2="118" y2="124" gradientUnits="userSpaceOnUse"><stop stop-color="#30373D"/><stop offset="1" stop-color="#121619"/></linearGradient><linearGradient id="gold" x1="37" y1="23" x2="98" y2="108" gradientUnits="userSpaceOnUse"><stop stop-color="#FFE486"/><stop offset="1" stop-color="#F2B705"/></linearGradient></defs>
  <g aria-hidden="true"><rect x="4" y="4" width="120" height="120" rx="31" fill="url(#bg)"/><path d="M35 25h35.5c4.8 0 9.4 1.9 12.8 5.3l23.4 23.4a12 12 0 0 1 0 17L72 105.4a12 12 0 0 1-17 0L27.6 78A12 12 0 0 1 24 69.5V36a11 11 0 0 1 11-11Z" fill="url(#gold)"/><circle cx="47" cy="48" r="8" fill="#171C20"/><path d="m47 73 12 12 25-28" fill="none" stroke="#171C20" stroke-width="9" stroke-linecap="round" stroke-linejoin="round"/></g>
  <g font-family="Manrope,Inter,Arial,sans-serif"><text x="145" y="72" fill="#FFF8ED" font-size="56" font-weight="800" letter-spacing="-2.2">Preço</text><text x="297" y="72" fill="#FFD968" font-size="56" font-weight="800" letter-spacing="-2.2">Certo</text><text x="149" y="99" fill="#D9D5CD" font-size="12" font-weight="750" letter-spacing="2.1">COMPARE ANTES DE COMPRAR</text></g>
</svg>
